<?xml version="1.0" standalone="no"?>
<!DOCTYPE svg PUBLIC "-//W3C//DTD SVG 20010904//EN"
 "http://www.w3.org/TR/2001/REC-SVG-20010904/DTD/svg10.dtd">
<svg version="1.0" xmlns="http://www.w3.org/2000/svg"
 width="1024.000000pt" height="1024.000000pt" viewBox="0 0 1024.000000 1024.000000"
 preserveAspectRatio="xMidYMid meet">
<metadata>
Created by potrace 1.16, written by Peter Selinger 2001-2019
</metadata>
<g transform="translate(0.000000,1024.000000) scale(0.100000,-0.100000)"
fill="#000000" stroke="none">
<path d="M4840 7740 c-564 -46 -1080 -243 -1538 -587 -211 -158 -406 -369
-568 -613 -148 -223 -284 -525 -362 -805 -108 -386 -130 -822 -62 -1235 60
-368 199 -755 364 -1010 33 -50 42 -70 29 -65 -31 12 -216 26 -260 20 -57 -8
-67 -29 -59 -119 14 -154 56 -251 152 -355 61 -67 158 -122 247 -142 l57 -12
0 -239 0 -238 -62 -1 c-167 -2 -176 -3 -201 -27 -14 -13 -28 -35 -32 -49 -8
-35 12 -89 42 -113 26 -20 34 -20 2482 -20 1607 0 2468 4 2492 10 47 13 69 39
76 89 5 36 2 44 -30 76 -30 30 -42 35 -81 35 l-46 0 0 268 0 267 66 59 c117
105 177 225 193 386 7 70 6 76 -16 98 -23 23 -29 24 -133 20 l-110 -3 0 120
c0 110 2 124 25 165 184 324 288 685 317 1103 32 476 -77 991 -317 1490 -35
73 -51 97 -66 97 -10 0 -69 -22 -130 -50 -61 -27 -114 -50 -117 -50 -4 0 -8
24 -9 54 -4 99 -35 158 -142 270 -53 56 -107 115 -119 133 -75 106 -101 292
-63 443 21 84 85 230 100 230 5 0 25 -29 46 -64 143 -245 455 -353 685 -238
89 45 115 119 55 158 -22 14 -29 14 -77 1 -89 -25 -122 -28 -199 -17 -98 14
-167 48 -239 116 -67 64 -116 150 -125 222 -10 80 -15 91 -40 108 -38 25 -72
5 -168 -95 -89 -95 -142 -177 -184 -286 -15 -38 -28 -71 -29 -73 -1 -1 -53 27
-115 64 -347 204 -745 340 -1140 389 -149 18 -453 26 -589 15z m339 -453 c30
-49 61 -72 124 -93 76 -24 76 -25 8 -46 -97 -30 -149 -93 -176 -213 -7 -28 -8
-26 -29 35 -11 36 -31 79 -43 96 -23 32 -102 77 -163 91 l-35 9 65 23 c36 13
75 30 87 38 36 24 81 101 94 161 l12 57 16 -61 c10 -33 27 -77 40 -97z m-921
-91 c9 -10 37 -28 62 -39 l45 -19 -35 -15 c-47 -20 -84 -56 -106 -104 l-17
-40 -26 53 c-22 44 -34 57 -78 78 -28 14 -52 28 -52 31 -1 4 11 9 27 12 43 9
97 61 112 108 l14 42 19 -44 c10 -24 26 -52 35 -63z m1616 -19 c11 -60 64
-127 120 -153 28 -13 59 -24 69 -24 9 0 17 -4 17 -10 0 -5 -8 -10 -18 -10 -10
0 -42 -12 -71 -26 -58 -29 -106 -91 -117 -151 -7 -40 -24 -54 -24 -21 0 37
-49 126 -82 149 -16 12 -55 29 -85 39 l-55 17 60 21 c33 12 71 31 85 42 30 24
77 114 77 148 0 33 17 19 24 -21z m591 -132 c14 -13 25 -36 25 -50 0 -28 -40
-75 -64 -75 -31 0 -65 24 -75 52 -27 76 58 130 114 73z m-2816 -141 c12 -15
21 -35 21 -46 0 -27 -45 -68 -75 -68 -33 0 -75 42 -75 75 0 62 89 89 129 39z
m1174 -239 c474 -25 955 -246 1317 -605 330 -327 527 -716 585 -1158 23 -172
17 -547 -11 -699 l-6 -33 -278 0 c-300 0 -341 -5 -405 -54 -51 -39 -84 -102
-91 -174 l-7 -62 -276 0 c-301 0 -357 -7 -429 -55 -21 -14 -49 -44 -61 -66
-17 -30 -27 -39 -40 -34 -50 21 -98 24 -345 26 -328 1 -356 -4 -421 -79 -41
-47 -53 -85 -54 -163 -1 -51 -5 -68 -17 -73 -9 -3 -123 -6 -254 -6 l-238 0 -6
30 c-3 17 -9 43 -12 59 -9 46 -58 106 -106 130 -42 20 -58 21 -354 21 l-310 0
-52 -26 c-29 -14 -61 -37 -72 -51 -20 -25 -21 -26 -35 -7 -26 34 -122 227
-159 320 -44 111 -89 288 -112 437 -24 156 -24 486 0 617 82 454 265 806 572
1100 339 325 716 514 1164 586 112 17 312 33 370 28 19 -2 83 -6 143 -9z
m-1649 -47 c24 -34 20 -73 -10 -97 -15 -12 -34 -21 -44 -21 -10 0 -29 9 -44
21 -34 27 -36 81 -4 103 33 24 84 20 102 -6z m3516 -48 c0 -42 44 -134 84
-175 32 -33 57 -48 113 -66 l73 -23 -53 -16 c-74 -23 -110 -44 -144 -84 -31
-35 -73 -130 -73 -166 0 -39 -18 -28 -22 15 -3 25 -18 71 -34 103 -35 69 -96
114 -181 133 l-56 13 66 22 c37 12 80 31 97 40 43 26 79 86 98 164 16 63 32
84 32 40z m-426 -61 c19 -15 26 -30 26 -54 0 -24 -7 -39 -26 -54 -31 -24 -43
-26 -78 -10 -51 24 -53 109 -4 129 36 14 53 12 82 -11z m1150 -425 c3 -9 6
-82 6 -164 0 -126 -2 -149 -16 -154 -9 -3 -117 -6 -240 -6 l-224 0 -1 33 c-3
60 -3 122 -1 215 l2 92 234 0 c204 0 235 -2 240 -16z m-97 -524 l103 0 0 -70
0 -70 -75 0 -75 0 0 -585 0 -585 75 0 75 0 0 -94 c0 -58 -5 -106 -14 -128 -12
-29 -63 -81 -130 -136 -14 -11 -16 -47 -16 -270 l0 -258 -59 -39 c-67 -43
-149 -135 -201 -227 -19 -34 -40 -63 -47 -65 -6 -2 -14 13 -18 38 -4 23 -4
528 -1 1123 4 595 7 1148 6 1230 l0 149 137 -6 c75 -4 183 -7 240 -7z m-612
-1604 l25 -25 -3 -785 c-1 -431 -5 -788 -10 -792 -4 -4 -131 -8 -282 -8 l-275
-1 -2 770 c0 424 0 781 1 795 1 14 13 35 27 48 25 21 31 22 260 22 l235 0 24
-24z m-769 -293 l24 -26 -2 -646 -3 -646 -327 -1 -328 0 0 631 0 632 23 34 23
34 144 5 c80 3 207 7 283 8 138 2 138 2 163 -25z m-863 -129 c33 -33 37 -58
34 -224 l-2 -135 -297 -3 -298 -2 0 87 c-1 49 -3 122 -6 164 -5 71 -4 78 21
107 l27 32 248 0 247 0 26 -26z m-1528 -77 l27 -22 -2 -315 c0 -173 -3 -316
-5 -318 -10 -10 -156 35 -226 70 -102 51 -174 128 -228 243 -22 47 -49 97 -60
112 -18 22 -21 40 -21 119 0 88 1 94 26 113 25 20 39 21 245 21 212 0 219 -1
244 -23z m-813 -232 c71 -28 125 -74 167 -140 17 -28 31 -54 31 -58 0 -13 -96
-5 -144 11 -78 27 -179 127 -201 201 -7 23 -6 23 41 16 27 -3 75 -17 106 -30z
m4818 20 c0 -22 -47 -88 -91 -129 -71 -65 -138 -96 -211 -96 -69 0 -71 7 -24
71 41 55 121 110 201 138 56 19 125 28 125 16z m-3269 -34 l29 -29 0 -375 c0
-206 -3 -395 -6 -420 l-7 -46 -263 0 -264 -1 0 421 0 421 29 29 29 29 212 0
212 0 29 -29z m732 -191 l100 0 -8 -332 c-4 -183 -8 -334 -9 -336 -2 -1 -134
-3 -294 -5 l-292 -2 -1 60 c0 33 -2 185 -5 337 l-5 277 28 5 c15 2 109 3 207
0 99 -2 224 -4 279 -4z m-1868 -270 c101 -69 199 -105 403 -146 22 -4 23 -6
20 -132 l-3 -127 -267 -3 -268 -2 0 256 0 257 35 -36 c19 -20 55 -50 80 -67z
m4100 67 c6 -1 13 -9 17 -17 10 -24 9 -406 -2 -434 l-10 -26 -154 0 c-151 0
-154 0 -160 23 -3 12 -6 123 -6 246 l0 224 153 -8 c83 -4 157 -8 162 -8z"/>
<path d="M5970 5274 c-139 -38 -224 -153 -224 -304 -1 -89 23 -146 86 -210
149 -154 404 -112 505 82 36 70 39 187 6 260 -64 142 -221 215 -373 172z"/>
<path d="M4670 4910 c-56 -12 -85 -26 -124 -61 -104 -91 -114 -267 -20 -363
55 -56 108 -80 184 -80 222 -1 339 244 203 422 -45 59 -164 100 -243 82z"/>
</g>
</svg>
